<?xml version="1.0" standalone="no"?>
<!DOCTYPE svg PUBLIC "-//W3C//DTD SVG 20010904//EN"
 "http://www.w3.org/TR/2001/REC-SVG-20010904/DTD/svg10.dtd">
<svg version="1.0" xmlns="http://www.w3.org/2000/svg"
 width="1024.000000pt" height="1024.000000pt" viewBox="0 0 1024.000000 1024.000000"
 preserveAspectRatio="xMidYMid meet">
<metadata>
Created by potrace 1.14, written by Peter Selinger 2001-2017
</metadata>
<g transform="translate(0.000000,1024.000000) scale(0.100000,-0.100000)"
fill="#000000" stroke="none">
<path d="M4645 7938 c-61 -35 -191 -209 -231 -310 -15 -37 -25 -48 -47 -52
-16 -3 -46 -24 -67 -46 -21 -22 -43 -40 -49 -40 -28 0 -80 -45 -102 -87 -13
-26 -23 -51 -21 -57 4 -11 -60 -106 -70 -106 -5 0 -8 -4 -8 -9 0 -6 -231 -325
-288 -396 -4 -5 -36 -48 -70 -95 -35 -47 -69 -93 -77 -103 -8 -9 -15 -21 -15
-26 0 -5 -3 -11 -8 -13 -4 -1 -35 -41 -70 -88 -35 -47 -93 -126 -130 -175 -37
-50 -119 -160 -182 -245 -115 -156 -335 -454 -417 -565 -24 -33 -84 -114 -134
-180 -52 -70 -84 -122 -77 -124 6 -2 -3 -11 -22 -20 -18 -9 -36 -23 -40 -31
-5 -8 -16 -32 -26 -52 -11 -22 -27 -39 -41 -43 -24 -6 -37 -27 -47 -76 -3 -14
-15 -36 -26 -49 -11 -13 -20 -26 -20 -30 0 -3 -17 -24 -38 -46 -56 -57 -125
-151 -158 -214 -16 -30 -33 -58 -38 -62 -9 -6 -17 -93 -16 -172 0 -21 -4 -44
-11 -52 -6 -7 -12 -39 -14 -69 -2 -31 -10 -66 -19 -80 -17 -26 -24 -63 -30
-165 -3 -58 -14 -93 -69 -235 -42 -107 -119 -317 -122 -334 -2 -11 -8 -28 -13
-38 -6 -10 -10 -21 -10 -26 0 -4 -4 -26 -8 -50 -9 -52 -9 -54 -19 -147 -8 -72
-9 -117 -6 -188 l1 -34 40 30 c73 53 229 252 260 332 24 60 25 86 6 105 -11
12 -12 20 -2 47 35 96 86 181 100 167 3 -2 7 -24 11 -49 9 -64 27 -89 60 -82
14 2 33 15 42 28 10 16 25 24 45 24 27 0 29 -3 27 -32 -4 -57 12 -121 46 -183
36 -64 77 -97 96 -78 11 11 21 10 59 -5 8 -3 22 -6 30 -6 8 -1 21 -5 29 -10 7
-5 43 -9 80 -9 36 0 75 -6 86 -13 11 -7 33 -15 49 -18 30 -5 48 -19 106 -80
39 -41 29 -40 185 -34 40 1 58 -4 83 -22 18 -13 32 -29 32 -35 0 -6 14 -26 31
-43 23 -23 41 -32 68 -33 68 -3 86 -5 119 -13 17 -4 32 -12 32 -17 0 -4 12
-15 28 -22 55 -29 273 -97 331 -104 20 -3 43 -6 51 -7 8 -2 34 -7 58 -11 23
-4 42 -11 42 -16 0 -5 7 -9 15 -9 8 0 15 -4 15 -9 0 -18 145 -95 237 -125 28
-9 54 -23 56 -31 9 -22 61 -28 101 -11 31 13 38 13 42 2 6 -16 65 -46 149 -76
79 -28 119 -48 180 -89 58 -39 87 -51 135 -57 19 -2 60 -14 90 -25 30 -11 70
-22 90 -24 73 -7 122 -22 140 -44 12 -14 111 -55 195 -81 65 -20 261 -35 269
-21 3 5 24 8 46 7 23 -1 40 3 40 9 0 5 9 16 19 22 10 7 33 42 50 78 17 36 45
79 60 94 39 38 58 79 55 116 -2 17 2 35 10 40 17 13 128 187 176 276 101 189
263 473 305 535 12 18 36 61 54 98 l33 65 28 -14 c15 -8 36 -14 46 -14 10 0
28 -2 39 -4 11 -2 41 6 67 19 26 13 55 24 64 24 10 0 15 3 11 6 -3 3 7 18 23
32 16 15 73 115 128 222 102 202 143 277 172 320 30 43 80 140 80 155 0 8 5
15 10 15 6 0 10 8 10 17 0 9 7 24 15 33 9 10 17 43 20 76 2 32 6 88 9 124 3
36 8 101 11 145 5 72 12 92 64 195 32 63 66 138 76 165 11 28 30 67 43 88 13
21 47 84 76 140 56 107 114 212 147 262 10 17 22 37 26 45 4 8 21 38 38 65 17
28 49 88 72 135 36 74 48 104 60 145 13 49 42 143 47 155 3 8 2 20 -2 25 -13
20 -71 55 -84 53 -7 -2 -13 4 -13 13 0 9 -5 23 -11 30 -6 8 -9 38 -7 69 2 30
5 71 6 91 1 19 10 47 18 60 18 27 100 187 98 191 -4 10 25 93 47 134 15 27 28
65 30 84 2 19 5 45 8 57 8 35 -11 86 -46 126 -33 36 -85 56 -303 119 -22 6
-44 14 -50 17 -5 3 -15 6 -21 7 -6 1 -37 11 -70 22 -32 12 -133 44 -224 72
-91 27 -178 54 -195 60 -16 5 -46 12 -65 15 -19 3 -48 10 -65 15 -16 5 -50 12
-75 15 -24 4 -48 8 -51 11 -4 2 -22 6 -41 8 -18 3 -72 11 -118 20 -185 34
-259 43 -310 39 -33 -2 -41 0 -37 11 3 8 -2 21 -11 29 -13 12 -289 111 -336
122 -6 1 -18 5 -26 8 -42 16 -242 77 -254 77 -8 0 -16 4 -18 8 -1 5 -50 23
-108 41 -58 19 -109 36 -115 39 -5 4 -14 7 -20 8 -5 1 -30 7 -55 14 -61 17
-108 18 -150 4 -29 -9 -44 -8 -85 6 -27 10 -84 27 -125 39 -41 13 -86 26 -100
31 -146 48 -288 64 -335 38z"/>
</g>
</svg>
